<?xml version="1.0" encoding="utf-8"?>
<!-- Generator: Adobe Illustrator 25.3.1, SVG Export Plug-In . SVG Version: 6.00 Build 0)  -->
<svg version="1.1" id="Layer_1" xmlns="http://www.w3.org/2000/svg" xmlns:xlink="http://www.w3.org/1999/xlink" x="0px" y="0px"
	 viewBox="0 0 663 497" style="enable-background:new 0 0 663 497;" xml:space="preserve">
<style type="text/css">
	.st0{fill:#FFFFFF;}
	.st1{font-family:'Raleway-BlackItalic';}
	.st2{font-size:96.4718px;}
	.st3{fill:url(#SVGID_1_);}
	.st4{fill:url(#SVGID_2_);}
	.st5{fill:url(#SVGID_3_);}
	.st6{fill:url(#SVGID_4_);}
	.st7{fill:url(#SVGID_5_);}
	.st8{fill:url(#SVGID_6_);}
	.st9{fill:url(#SVGID_7_);}
	.st10{font-size:136.5591px;}
	.st11{font-family:'ArialMT';}
	.st12{font-size:25.4241px;}
	.st13{fill:#E2091A;}
	.st14{font-family:'Raleway-SemiBoldItalic';}
	.st15{font-size:25.4226px;}
	.st16{fill:none;stroke:#FFFFFF;stroke-width:3;stroke-miterlimit:10;}
</style>
<g>
	<g>
		<g>
			
				<image style="overflow:visible;opacity:0.35;enable-background:new    ;" width="437" height="172" xlink:href="2092FD8D.png"  transform="matrix(0.9784 0 0 0.9784 157.8632 237.8686)">
			</image>
			<g>
				
					<rect x="312.4" y="122.9" transform="matrix(5.519864e-02 -0.9985 0.9985 5.519864e-02 32.5664 660.1628)" class="st0" width="105.4" height="379.9"/>
			</g>
		</g>
		<g>
			<text transform="matrix(1.0122 5.589863e-02 -5.519864e-02 0.9985 194.7203 340.1206)" class="st0 st1 st2">F</text>
			<text transform="matrix(1.0122 5.589863e-02 -5.519864e-02 0.9985 248.0288 343.0646)" class="st0 st1 st2">RIDAY</text>
			<g>
				
					<linearGradient id="SVGID_1_" gradientUnits="userSpaceOnUse" x1="197.6043" y1="192.5762" x2="546.812" y2="192.5762" gradientTransform="matrix(0.9985 5.520000e-02 5.520000e-02 -0.9985 -11.6226 487.2906)">
					<stop  offset="0" style="stop-color:#E20615"/>
					<stop  offset="1" style="stop-color:#66102B"/>
				</linearGradient>
				<path class="st3" d="M212.9,272.5l45.3,2.5l-4.4,16.2l-26.3-1.4l-3.1,11.2l21.3,1.2l-4.1,15l-21.4-1.2l-6.9,25.1l-19-1.1
					L212.9,272.5z"/>
				
					<linearGradient id="SVGID_2_" gradientUnits="userSpaceOnUse" x1="197.6043" y1="192.5738" x2="546.812" y2="192.5738" gradientTransform="matrix(0.9985 5.520000e-02 5.520000e-02 -0.9985 -11.6226 487.2906)">
					<stop  offset="0" style="stop-color:#E20615"/>
					<stop  offset="1" style="stop-color:#66102B"/>
				</linearGradient>
				<path class="st4" d="M247.7,343.1l18.5-67.6l30.5,1.7c2.8,0.2,5.3,0.9,7.4,2.1c2.2,1.3,3.9,2.8,5.3,4.7c1.4,1.9,2.4,4.1,3.1,6.5
					c0.7,2.4,0.9,4.9,0.8,7.4c-0.1,2.3-0.6,4.5-1.4,6.6c-0.8,2.2-1.8,4.3-3.1,6.3c-1.3,2-2.9,3.8-4.7,5.5s-3.8,3.1-5.9,4.4l6.9,25.6
					l-21.5-1.2l-5.6-21.4l-5.8-0.3l-5.7,20.8L247.7,343.1z M287.5,307.8c0.5,0,1.1-0.2,1.8-0.6c0.7-0.4,1.3-1,2-1.8
					c0.6-0.8,1.2-1.8,1.6-2.9c0.5-1.1,0.7-2.4,0.8-3.7c0.1-1.7-0.1-3-0.7-4c-0.6-1-1.2-1.5-2-1.5l-10.1-0.6l-3.9,14.5L287.5,307.8z"
					/>
				
					<linearGradient id="SVGID_3_" gradientUnits="userSpaceOnUse" x1="197.6043" y1="192.576" x2="546.812" y2="192.576" gradientTransform="matrix(0.9985 5.520000e-02 5.520000e-02 -0.9985 -11.6226 487.2906)">
					<stop  offset="0" style="stop-color:#E20615"/>
					<stop  offset="1" style="stop-color:#66102B"/>
				</linearGradient>
				<path class="st5" d="M330,279l19,1.1l-18.5,67.6l-19-1.1L330,279z"/>
				
					<linearGradient id="SVGID_4_" gradientUnits="userSpaceOnUse" x1="197.6043" y1="192.5754" x2="546.812" y2="192.5754" gradientTransform="matrix(0.9985 5.520000e-02 5.520000e-02 -0.9985 -11.6226 487.2906)">
					<stop  offset="0" style="stop-color:#E20615"/>
					<stop  offset="1" style="stop-color:#66102B"/>
				</linearGradient>
				<path class="st6" d="M361,280.7l25.6,1.4c4.6,0.3,8.5,1.2,11.8,2.7s6,3.6,8.1,6.2c2.1,2.5,3.6,5.4,4.5,8.8
					c0.9,3.3,1.2,6.8,1,10.5c-0.3,6-1.7,11.5-4.1,16.5s-5.6,9.2-9.5,12.7c-4,3.5-8.5,6.1-13.7,7.9c-5.2,1.8-10.8,2.5-16.7,2.2
					l-25.6-1.4L361,280.7z M372.5,333.5c2.7,0.1,5.3-0.3,7.6-1.4c2.3-1.1,4.4-2.6,6.1-4.6c1.7-2,3.1-4.3,4.2-7s1.7-5.5,1.8-8.5
					c0.2-3.9-0.5-7.1-2.3-9.6c-1.7-2.5-4.3-3.8-7.9-4l-6.5-0.4l-9.7,35.2L372.5,333.5z"/>
				
					<linearGradient id="SVGID_5_" gradientUnits="userSpaceOnUse" x1="197.6043" y1="192.5794" x2="546.812" y2="192.5794" gradientTransform="matrix(0.9985 5.520000e-02 5.520000e-02 -0.9985 -11.6226 487.2906)">
					<stop  offset="0" style="stop-color:#E20615"/>
					<stop  offset="1" style="stop-color:#66102B"/>
				</linearGradient>
				<path class="st7" d="M445.4,285.4l17.5,1l3.9,68.8l-19.3-1.1l0.1-13.4l-16.6-0.9l-7.1,13l-19.4-1.1L445.4,285.4z M448,328.1
					l0.4-21.2l-11.2,20.6L448,328.1z"/>
				
					<linearGradient id="SVGID_6_" gradientUnits="userSpaceOnUse" x1="197.6043" y1="192.5946" x2="546.812" y2="192.5946" gradientTransform="matrix(0.9985 5.520000e-02 5.520000e-02 -0.9985 -11.6226 487.2906)">
					<stop  offset="0" style="stop-color:#E20615"/>
					<stop  offset="1" style="stop-color:#66102B"/>
				</linearGradient>
				<path class="st8" d="M493.1,333.7l-9.8-46.2l20.6,1.1l3,29.8l19.3-28.6l20.7,1.1l-34.9,44l-6.1,22.4l-18.9-1L493.1,333.7z"/>
			</g>
		</g>
	</g>
	<g>
		<g>
			
				<image style="overflow:visible;opacity:0.35;enable-background:new    ;" width="567" height="219" xlink:href="2092FD8F.png"  transform="matrix(0.9784 0 0 0.9784 70.7869 84.2622)">
			</image>
			<g>
				
					<linearGradient id="SVGID_7_" gradientUnits="userSpaceOnUse" x1="87.5456" y1="322.8131" x2="592.936" y2="322.8131" gradientTransform="matrix(0.9981 -6.110000e-02 -6.110000e-02 -0.9981 21.1614 525.5386)">
					<stop  offset="0" style="stop-color:#E20615"/>
					<stop  offset="1" style="stop-color:#66102B"/>
				</linearGradient>
				<polygon class="st9" points="597.6,237.6 93.1,268.4 84.5,127.5 588.9,96.7 				"/>
			</g>
		</g>
		<text transform="matrix(1.0118 -6.200197e-02 6.110193e-02 0.9981 128.3985 244.7901)" class="st0 st1 st10">B</text>
		<text transform="matrix(1.0118 -6.200197e-02 6.110193e-02 0.9981 220.561 239.1427)" class="st0 st1 st10">LACK</text>
	</g>
	<g>
		<text transform="matrix(1.012 -5.819717e-02 5.739721e-02 0.9984 254.673 80.5056)" class="st0 st11 st12">O</text>
		<text transform="matrix(1.012 -5.819717e-02 5.739721e-02 0.9984 272.3962 79.4863)" class="st0 st11 st12">NLY </text>
		<text transform="matrix(1.012 -5.819717e-02 5.739721e-02 0.9984 320.8435 76.7001)" class="st13 st11 st12">24 HOURS</text>
	</g>
	<text transform="matrix(1.0132 3.170032e-02 -3.130032e-02 0.9995 190.446 418.33)" class="st0 st14 st15">G</text>
	<text transform="matrix(1.0132 3.170032e-02 -3.130032e-02 0.9995 208.2498 418.8871)" class="st0 st14 st15">ET THE </text>
	<text transform="matrix(1.0132 3.170032e-02 -3.130032e-02 0.9995 299.3 421.7357)" class="st13 st14 st15">50% EXTRA</text>
	<text transform="matrix(1.0132 3.170032e-02 -3.130032e-02 0.9995 432.4126 425.9004)" class="st0 st14 st15"> OFF!</text>
	<g>
		<polyline class="st16" points="163.1,277.9 80.3,282.9 70,114.7 601.8,82.1 612.1,250.4 		"/>
		<polyline class="st16" points="572.1,257.8 564.8,390.4 158.1,367.9 		"/>
	</g>
	<g>
		<g>
			<path class="st16" d="M536.7,482.7c8.6,0,8.6,7.8,17.3,7.8c8.6,0,8.6-7.8,17.3-7.8c8.6,0,8.6,7.8,17.3,7.8
				c8.6,0,8.6-7.8,17.3-7.8c8.6,0,8.6,7.8,17.3,7.8c8.6,0,8.6-7.8,17.3-7.8c8.6,0,8.6,7.8,17.3,7.8"/>
		</g>
		<g>
			<path class="st16" d="M21.4,394.7c6.6,0,6.6,7.8,13.1,7.8c6.6,0,6.6-7.8,13.1-7.8c6.6,0,6.6,7.8,13.1,7.8c6.6,0,6.6-7.8,13.1-7.8
				c6.6,0,6.6,7.8,13.1,7.8c6.6,0,6.6-7.8,13.1-7.8c6.6,0,6.6,7.8,13.1,7.8"/>
		</g>
		<g>
			<path class="st16" d="M143.7,5.6c8.6,0,8.6,7.8,17.3,7.8c8.6,0,8.6-7.8,17.3-7.8c8.6,0,8.6,7.8,17.3,7.8c8.6,0,8.6-7.8,17.3-7.8
				c8.6,0,8.6,7.8,17.3,7.8c8.6,0,8.6-7.8,17.3-7.8c8.6,0,8.6,7.8,17.3,7.8"/>
		</g>
		<g>
			<polygon class="st16" points="619.8,435.4 597.9,404.7 644.9,426.7 			"/>
			<polygon class="st16" points="596.1,442.8 582.5,420.7 579.7,442.8 			"/>
		</g>
		<g>
			<polygon class="st16" points="32.9,58.2 54.8,88.9 7.7,66.8 			"/>
			<polygon class="st16" points="56.5,50.7 70.2,72.9 72.9,50.8 			"/>
		</g>
		<circle class="st16" cx="636.6" cy="275.6" r="9.8"/>
		<circle class="st16" cx="77.7" cy="317.3" r="9.8"/>
	</g>
</g>
</svg>
